<?xml version="1.0" encoding="utf-8"?>
<!-- Generator: Adobe Illustrator 28.1.0, SVG Export Plug-In . SVG Version: 6.00 Build 0)  -->
<svg version="1.1" id="レイヤー_1" xmlns="http://www.w3.org/2000/svg" xmlns:xlink="http://www.w3.org/1999/xlink" x="0px"
	 y="0px" viewBox="0 0 595.3 481.6" style="enable-background:new 0 0 595.3 481.6;" xml:space="preserve">
<style type="text/css">
	.st0{fill:#FFFFFF;stroke:#5E5D5D;stroke-width:18;stroke-miterlimit:10;}
</style>
<g>
	<path class="st0" d="M350.3,73.3H221.4c-65-1.4-123.1,40.5-142.4,102.6c-20.9,74.5,22.5,151.9,97.1,172.9c10.9,3,22.1,4.8,33.3,5.1
		h5.7v53.7c0.1,7.4,6.2,13.4,13.6,13.4c3.8,0,7.3-1.6,9.9-4.4l47.4-53.9c4.5-5.4,11.2-8.6,18.3-8.7h36.1
		c65,1.3,123-40.5,142.4-102.6c20.9-74.6-22.6-151.9-97.1-172.8C374.1,75.3,362.3,73.6,350.3,73.3z"/>
</g>
</svg>
