<?xml version="1.0" encoding="utf-8"?>
<!-- Generator: Adobe Illustrator 28.0.0, SVG Export Plug-In . SVG Version: 6.00 Build 0)  -->
<svg version="1.1" id="レイヤー_1" xmlns="http://www.w3.org/2000/svg" xmlns:xlink="http://www.w3.org/1999/xlink" x="0px"
	 y="0px" viewBox="0 0 524.5 471.3" style="enable-background:new 0 0 524.5 471.3;" xml:space="preserve">
<style type="text/css">
	.st0{fill:#D45454;}
</style>
<g>
	<g>
		<path class="st0" d="M387,14.9c-78,1.5-116.2,56.7-124.6,106.9c-8.5-50.2-46.6-105.4-124.6-106.9C65.8,13.5,6.4,68.9,6.4,169.8
			C6.4,299.4,153,359.2,253.2,456c3.5,3.4,2.7,3.3,2.7,3.3c1.6,2,4,3.2,6.5,3.2v0c0,0,0,0,0,0c0,0,0,0,0,0v0c2.5,0,4.9-1.2,6.5-3.2
			c0,0-0.8,0.1,2.7-3.3c100.2-96.8,246.8-156.7,246.8-286.2C518.4,68.9,458.9,13.5,387,14.9z"/>
	</g>
</g>
</svg>
