<?xml version="1.0" encoding="utf-8"?>
<!-- Generator: Adobe Illustrator 28.0.0, SVG Export Plug-In . SVG Version: 6.00 Build 0)  -->
<svg version="1.1" id="レイヤー_1" xmlns="http://www.w3.org/2000/svg" xmlns:xlink="http://www.w3.org/1999/xlink" x="0px"
	 y="0px" viewBox="0 0 595.3 481.6" style="enable-background:new 0 0 595.3 481.6;" xml:space="preserve">
<style type="text/css">
	.st0{fill:#FFFFFF;stroke:#5F5D5D;stroke-width:18;stroke-miterlimit:10;}
</style>
<g>
	<g>
		<path class="st0" d="M422.3,18.2c-78,1.5-116.2,56.7-124.6,106.9C289.2,74.9,251,19.7,173,18.2C101.1,16.8,41.6,72.1,41.6,173.1
			c0,129.6,146.6,189.4,246.8,286.2c3.5,3.4,2.7,3.3,2.7,3.3c1.6,2,4,3.2,6.5,3.2v0c0,0,0,0,0,0c0,0,0,0,0,0v0
			c2.5,0,4.9-1.2,6.5-3.2c0,0-0.8,0.1,2.7-3.3c100.2-96.8,246.8-156.7,246.8-286.2C553.6,72.1,494.2,16.8,422.3,18.2z"/>
	</g>
</g>
</svg>
